# xmcd
#
# Track frame offsets:
#	150
#	25615
#	57780
#	88850
#	114560
#	145100
#	179075
#	202887
#	219997
#
# Disc length: 3237 seconds
#
# Revision: 1
# Processed by: cddbd v1.5.2PL0 Copyright (c) Steve Scherf et al.
# Submitted via: audiograbber 1.83.01
#
DISCID=790ca309
DTITLE=Bob Dylan - Himself CD 1
DYEAR=1900
DGENRE=
TTITLE0=I Can't Be Stisfied
TTITLE1=If Not For You
TTITLE2=All Along The Watchtower
TTITLE3=The Miner's Song
TTITLE4=It Takes A Lot To Laugh, It Takes A Train To Cry
TTITLE5=I And I
TTITLE6=Silvio
TTITLE7=Mama You've Been On My Mind
TTITLE8=Boots Of Spanish Leather
EXTD=
EXTT0=
EXTT1=
EXTT2=
EXTT3=
EXTT4=
EXTT5=
EXTT6=
EXTT7=
EXTT8=
PLAYORDER=
